<?xml version="1.0" encoding="UTF-8"?>
<svg id="Livello_1" data-name="Livello 1" xmlns="http://www.w3.org/2000/svg" viewBox="0 0 849.1 640.46">
  <defs>
    <style>
      .cls-1 {
        fill: #52ae32;
      }

      .cls-2 {
        fill: #fff;
      }

      .cls-3 {
        fill: #e30613;
      }
    </style>
  </defs>
  <g>
    <path class="cls-2" d="M781.26,94.27h42.32l-42.32-24.81v-18.27l41.74-25.15h-41.74V0h67.84v40.25l-35.89,19.85c5.95,3.38,11.96,6.77,18.04,10.15,6.08,3.38,12.03,6.65,17.85,9.81v40.03h-67.84v-25.82Z"/>
    <path class="cls-2" d="M849.1,205.44h-67.84v-27.51h67.84v27.51Z"/>
    <path class="cls-2" d="M781.26,270.84v-27.51h49.61v-33.38h18.23v93.25h-18.23v-32.36h-49.61Z"/>
    <path class="cls-2" d="M781.26,312.34v-31.12l67.84,43.75v32.81l-67.84,43.19v-30.78l11.04-6.88v-34.73l17.08,10.6v13.53c1.66-1.05,3.21-2.05,4.65-2.99,1.44-.94,2.86-1.86,4.27-2.76,1.41-.9,2.86-1.82,4.37-2.76,1.5-.94,3.12-1.97,4.85-3.1l-46.25-28.75Z"/>
    <path class="cls-2" d="M800.16,484.18h-18.9v-78.7h67.84v27.4h-48.94v51.3Z"/>
    <path class="cls-2" d="M849.1,516.2h-67.84v-27.51h67.84v27.51Z"/>
    <path class="cls-2" d="M781.26,551.83v-31.12l67.84,43.75v32.81l-67.84,43.19v-30.78l11.04-6.88v-34.73l17.08,10.6v13.53c1.66-1.05,3.21-2.05,4.65-2.99,1.44-.94,2.86-1.86,4.27-2.76,1.41-.9,2.86-1.82,4.37-2.76,1.5-.94,3.12-1.97,4.85-3.1l-46.25-28.75Z"/>
  </g>
  <g>
    <g>
      <path class="cls-2" d="M734.84,151.06c7.79-5.95,13.77-17.54,14.35-30.66l.52-120.4-373.95,283.96L0,1.23v639.23h109.73V221.88l266.18,200.14,358.93-270.96Z"/>
      <path class="cls-2" d="M160.97,464.75c-.12,11.93,1.62,18.49,12.75,26.06l202.21,149.65,261.68-199.84v199.84h112.09V222.06l-373.83,281.33-214.21-159.68-.71,121.04Z"/>
    </g>
    <polygon class="cls-3" points="375.93 502.82 375.93 640.46 749.71 355.5 749.71 222.06 375.93 502.82"/>
    <path class="cls-1" d="M734.84,151.06c7.79-5.95,13.77-17.54,14.35-30.66l.52-120.4-373.95,283.96.15,138.06,358.93-270.96Z"/>
  </g>
</svg>