<?xml version="1.0" encoding="UTF-8"?>
<svg id="Livello_1" data-name="Livello 1" xmlns="http://www.w3.org/2000/svg" viewBox="0 0 993.56 152.17">
  <defs>
    <style>
      .cls-1 {
        fill: #52ae32;
      }

      .cls-2 {
        fill: #fff;
      }

      .cls-3 {
        fill: #e30613;
      }
    </style>
  </defs>
  <g>
    <g>
      <path class="cls-2" d="M170.59,35.07c1.81-1.38,3.2-4.07,3.33-7.12l.12-27.95-86.81,65.92L0,.28v148.4h25.47V51.51l61.79,46.46,83.32-62.9Z"/>
      <path class="cls-2" d="M37.37,107.89c-.03,2.77.38,4.29,2.96,6.05l46.94,34.74,60.75-46.39v46.39h26.02V51.55l-86.78,65.31-49.73-37.07-.16,28.1Z"/>
    </g>
    <polygon class="cls-3" points="87.27 116.73 87.27 148.68 174.04 82.53 174.04 51.55 87.27 116.73"/>
    <path class="cls-1" d="M170.59,35.07c1.81-1.38,3.2-4.07,3.33-7.12l.12-27.95-86.81,65.92.04,32.05,83.32-62.9Z"/>
  </g>
  <g>
    <path class="cls-2" d="M382.06,119.99v-47.38l-27.77,47.38h-20.45l-28.15-46.73v46.73h-29.16V44.03h45.07l22.22,40.18c3.79-6.66,7.58-13.39,11.36-20.2,3.79-6.8,7.45-13.46,10.98-19.98h44.82v75.95h-28.91Z"/>
    <path class="cls-2" d="M506.53,44.03v75.95h-30.8V44.03h30.8Z"/>
    <path class="cls-2" d="M579.75,119.99h-30.8v-55.54h-37.37v-20.41h104.4v20.41h-36.23v55.54Z"/>
    <path class="cls-2" d="M626.2,119.99h-34.84l48.98-75.95h36.73l48.35,75.95h-34.46l-7.7-12.35h-38.88l11.87-19.12h15.15c-1.18-1.86-2.29-3.6-3.34-5.21s-2.08-3.2-3.09-4.78c-1.01-1.58-2.04-3.2-3.09-4.89-1.05-1.68-2.21-3.49-3.47-5.43l-32.19,51.78Z"/>
    <path class="cls-2" d="M818.59,98.82v21.16h-88.12V44.03h30.68v54.79h57.44Z"/>
    <path class="cls-2" d="M854.44,44.03v75.95h-30.8V44.03h30.8Z"/>
    <path class="cls-2" d="M894.34,119.99h-34.84l48.98-75.95h36.73l48.35,75.95h-34.46l-7.7-12.35h-38.88l11.87-19.12h15.15c-1.18-1.86-2.29-3.6-3.34-5.21-1.05-1.61-2.08-3.2-3.09-4.78-1.01-1.58-2.04-3.2-3.09-4.89s-2.21-3.49-3.47-5.43l-32.19,51.78Z"/>
  </g>
  <rect class="cls-2" x="222.41" y="3.49" width="6.88" height="148.68"/>
</svg>