<?xml version="1.0" encoding="UTF-8"?>
<svg id="Capa_1" xmlns="http://www.w3.org/2000/svg" version="1.1" viewBox="0 0 512 512">
  <!-- Generator: Adobe Illustrator 30.2.1, SVG Export Plug-In . SVG Version: 2.1.1 Build 1)  -->
  <defs>
    <style>
      .st0 {
        fill: #fff;
      }
    </style>
  </defs>
  <path class="st0" d="M467,76H45C20.24,76,0,96.15,0,121v270c0,24.86,20.25,45,45,45h422c24.76,0,45-20.15,45-45V121c0-24.86-20.25-45-45-45ZM460.09,106c-14.55,14.6-185.45,186.05-192.47,193.09-5.86,5.88-17.38,5.89-23.25,0L51.91,106h408.18ZM30,385.48V126.51l129.07,129.49L30,385.48ZM51.91,406l128.33-128.75,42.88,43.02c17.57,17.63,48.17,17.62,65.74,0l42.89-43.02,128.33,128.75H51.91ZM482,385.48l-129.07-129.48,129.07-129.49v258.97Z"/>
</svg>