<?xml version="1.0" encoding="UTF-8"?>
<svg id="Capa_1" xmlns="http://www.w3.org/2000/svg" version="1.1" viewBox="0 0 512 512">
  <!-- Generator: Adobe Illustrator 30.2.1, SVG Export Plug-In . SVG Version: 2.1.1 Build 1)  -->
  <defs>
    <style>
      .st0 {
        fill: #fff;
      }
    </style>
  </defs>
  <path class="st0" d="M336,31h-160c-30.33,0-55,24.67-55,55v340c0,30.33,24.67,55,55,55h160c30.33,0,55-24.67,55-55V86c0-30.33-24.67-55-55-55ZM361,426c0,13.79-11.21,25-25,25h-160c-13.79,0-25-11.21-25-25V86c0-13.79,11.21-25,25-25h160c13.79,0,25,11.21,25,25v340Z"/>
  <path class="st0" d="M276,391h-40c-8.28,0-15,6.72-15,15s6.72,15,15,15h40c8.28,0,15-6.72,15-15s-6.72-15-15-15Z"/>
  <path class="st0" d="M276,91h-40c-8.28,0-15,6.72-15,15s6.72,15,15,15h40c8.28,0,15-6.72,15-15s-6.72-15-15-15Z"/>
  <path class="st0" d="M490.23,158.91c-3.92-7.3-13.01-10.04-20.31-6.13h0c-7.3,3.92-10.04,13.01-6.13,20.31h0c11.74,21.89,18.2,51.33,18.2,82.9s-6.47,61.02-18.22,82.92h0c-3.92,7.3-1.17,16.39,6.13,20.31h0c7.3,3.92,16.39,1.17,20.31-6.13,14.05-26.19,21.78-60.67,21.78-97.1s-7.73-70.91-21.77-97.08h0Z"/>
  <path class="st0" d="M419.26,183.16c-7.09,4.28-9.37,13.5-5.09,20.59,8.27,13.71,12.83,32.26,12.83,52.24s-4.56,38.54-12.84,52.26c-4.28,7.09-2,16.31,5.09,20.59s16.31,2,20.59-5.09c11.06-18.33,17.16-42.4,17.16-67.76s-6.09-49.42-17.15-67.74c-4.28-7.09-13.5-9.37-20.59-5.09h0Z"/>
  <path class="st0" d="M48.22,338.91c-11.75-21.9-18.22-51.35-18.22-82.92s6.46-61.01,18.2-82.9h0c3.92-7.3,1.17-16.39-6.13-20.31h0c-7.3-3.92-16.39-1.17-20.31,6.13C7.73,185.08,0,219.55,0,255.99s7.74,70.92,21.78,97.1c3.92,7.3,13.01,10.04,20.31,6.13h0c7.3-3.92,10.04-13.01,6.13-20.31h0Z"/>
  <path class="st0" d="M85,255.99c0-19.98,4.56-38.53,12.83-52.24,4.28-7.09,2-16.31-5.09-20.59-7.09-4.28-16.31-2-20.59,5.09-11.06,18.32-17.15,42.38-17.15,67.74s6.09,49.42,17.16,67.76c4.28,7.09,13.5,9.37,20.59,5.09s9.37-13.5,5.09-20.59c-8.28-13.72-12.84-32.28-12.84-52.26Z"/>
</svg>