<svg id="Capa_1" enable-background="new 0 0 512 512" height="512" viewBox="0 0 512 512" width="512" xmlns="http://www.w3.org/2000/svg"><g><path d="m336 31h-160c-30.327 0-55 24.673-55 55v340c0 30.327 24.673 55 55 55h160c30.327 0 55-24.673 55-55v-340c0-30.327-24.673-55-55-55zm25 395c0 13.785-11.215 25-25 25h-160c-13.785 0-25-11.215-25-25v-340c0-13.785 11.215-25 25-25h160c13.785 0 25 11.215 25 25z"/><path d="m276 391h-40c-8.284 0-15 6.716-15 15s6.716 15 15 15h40c8.284 0 15-6.716 15-15s-6.716-15-15-15z"/><path d="m276 91h-40c-8.284 0-15 6.716-15 15s6.716 15 15 15h40c8.284 0 15-6.716 15-15s-6.716-15-15-15z"/><path d="m490.233 158.91c-3.916-7.3-13.008-10.044-20.308-6.128h-.001c-7.3 3.916-10.044 13.008-6.128 20.308v.001c11.739 21.884 18.204 51.324 18.204 82.895s-6.47 61.021-18.218 82.923v.001c-3.916 7.3-1.172 16.392 6.128 20.308h.001c7.3 3.916 16.392 1.172 20.308-6.128 14.046-26.186 21.781-60.672 21.781-97.104s-7.73-70.908-21.767-97.076z"/><path d="m419.261 183.157c-7.093 4.28-9.373 13.5-5.093 20.593 8.275 13.712 12.832 32.265 12.832 52.241s-4.561 38.535-12.843 52.259c-4.28 7.093-2 16.312 5.093 20.593s16.313 2 20.593-5.093c11.064-18.335 17.157-42.399 17.157-67.759s-6.089-49.418-17.146-67.741c-4.28-7.093-13.5-9.373-20.593-5.093z"/><path d="m48.218 338.91c-11.748-21.903-18.218-51.352-18.218-82.924s6.465-61.011 18.204-82.896v-.001c3.916-7.3 1.172-16.392-6.128-20.308h-.001c-7.3-3.916-16.392-1.172-20.308 6.128-14.037 26.169-21.767 60.645-21.767 97.077s7.735 70.918 21.782 97.104c3.916 7.3 13.008 10.044 20.308 6.128h.001c7.3-3.915 10.043-13.008 6.127-20.308z"/><path d="m85 255.991c0-19.976 4.557-38.528 12.832-52.241 4.28-7.093 2-16.312-5.093-20.593-7.093-4.28-16.313-2-20.593 5.093-11.057 18.323-17.146 42.38-17.146 67.741s6.093 49.424 17.157 67.759c4.28 7.093 13.5 9.373 20.593 5.093s9.373-13.5 5.093-20.593c-8.282-13.724-12.843-32.284-12.843-52.259z"/></g></svg>