<svg height="511pt" viewBox="0 0 511 511.99992" width="511pt" xmlns="http://www.w3.org/2000/svg"><path d="m489.300781 336.171875-32.425781-32.421875c-14.457031-14.460938-33.746094-22.421875-54.308594-22.421875s-39.847656 7.960937-54.304687 22.417969l-8.148438 8.148437c-18.632812 18.632813-48.261719 20.355469-68.925781 4.011719-13.632812-10.78125-26.902344-22.605469-39.445312-35.148438-12.546876-12.546874-24.371094-25.816406-35.148438-39.441406-16.34375-20.667968-14.617188-50.300781 4.011719-68.929687l8.144531-8.144531c14.460938-14.457032 22.421875-33.746094 22.421875-54.308594s-7.960937-39.847656-22.421875-54.308594l-32.421875-32.421875c-21.90625-21.910156-48.753906-28.46875-77.640625-18.972656-21.039062 6.917969-42.738281 22.65625-61.105469 44.316406-15.855469 18.699219-26.839843 38.925781-29.621093 54.457031-12.792969 39.894532-9.085938 88.679688 10.75 141.183594 19.894531 52.667969 54.390624 104.484375 99.753906 149.847656 45.363281 45.363282 97.179687 79.859375 149.851562 99.753906 32.058594 12.113282 62.726563 18.210938 90.839844 18.210938 17.921875 0 34.804688-2.480469 50.339844-7.460938 15.53125-2.78125 35.757812-13.765624 54.457031-29.625 21.660156-18.363281 37.398437-40.0625 44.316406-61.101562 9.496094-28.886719 2.9375-55.734375-18.96875-77.640625zm-9.523437 68.273437c-11.824219 35.957032-57.050782 67.777344-76.097656 70.660157-.832032.125-1.652344.320312-2.453126.585937-70.257812 23.179688-177.8125-19.125-261.550781-102.863281-83.742187-83.742187-126.042969-191.296875-102.863281-261.554687.265625-.800782.460938-1.621094.585938-2.457032 2.878906-19.042968 34.699218-64.269531 70.65625-76.089844 5.414062-1.78125 10.597656-2.675781 15.578124-2.675781 11.496094 0 21.890626 4.761719 31.488282 14.359375l32.421875 32.421875c8.792969 8.792969 13.636719 20.550781 13.636719 33.101563 0 12.550781-4.84375 24.304687-13.636719 33.097656l-8.144531 8.144531c-29.390626 29.394531-32.109376 76.140625-6.328126 108.742188 11.492188 14.535156 24.097657 28.683593 37.464844 42.046875 13.359375 13.359375 27.507813 25.964844 42.046875 37.464844 32.597657 25.785156 79.347657 23.066406 108.742188-6.324219l8.144531-8.148438c8.792969-8.792969 20.550781-13.636719 33.101562-13.636719 12.550782 0 24.304688 4.84375 33.097657 13.636719l32.425781 32.425781c13.75 13.75 17.574219 29.144532 11.683594 47.0625zm0 0"/><path d="m320.75 87.175781c-8.109375-1.667969-16.042969 3.546875-17.714844 11.660157-1.671875 8.113281 3.550782 16.042968 11.660156 17.714843 20.0625 4.132813 38.316407 13.972657 52.800782 28.453125 14.265625 14.265625 24.046875 32.234375 28.277344 51.964844 1.507812 7.035156 7.726562 11.851562 14.648437 11.851562 1.039063 0 2.101563-.109374 3.160156-.335937 8.097657-1.738281 13.253907-9.710937 11.515625-17.808594-5.445312-25.394531-18.03125-48.519531-36.394531-66.882812-18.636719-18.636719-42.136719-31.300781-67.953125-36.617188zm0 0"/><path d="m260.601562 55.726562c54.824219-11.101562 111.171876 5.894532 150.726563 45.445313 39.480469 39.480469 56.488281 95.734375 45.496094 150.476563-1.628907 8.121093 3.632812 16.023437 11.75 17.65625.996093.199218 1.992187.296874 2.96875.296874 6.996093 0 13.257812-4.925781 14.6875-12.046874 12.972656-64.605469-7.101563-130.996094-53.695313-177.589844-46.679687-46.679688-113.171875-66.730469-177.882812-53.636719-8.117188 1.644531-13.367188 9.554687-11.722656 17.671875 1.640624 8.117188 9.546874 13.371094 17.671874 11.726562zm0 0"/></svg>