<?xml version="1.0" encoding="UTF-8"?>
<svg id="Livello_1" xmlns="http://www.w3.org/2000/svg" version="1.1" viewBox="0 0 511 511">
  <!-- Generator: Adobe Illustrator 30.2.1, SVG Export Plug-In . SVG Version: 2.1.1 Build 1)  -->
  <defs>
    <style>
      .st0 {
        fill: #fff;
      }
    </style>
  </defs>
  <path class="st0" d="M488.84,335.52l-32.36-32.36c-14.43-14.43-33.68-22.38-54.2-22.38s-39.77,7.95-54.2,22.37l-8.13,8.13c-18.6,18.6-48.17,20.32-68.79,4-13.61-10.76-26.85-22.56-39.37-35.08s-24.32-25.77-35.08-39.36c-16.31-20.63-14.59-50.2,4-68.8l8.13-8.13c14.43-14.43,22.38-33.68,22.38-54.2s-7.95-39.77-22.38-54.2l-32.36-32.36C154.62,1.29,127.82-5.26,98.99,4.22c-21,6.9-42.65,22.61-60.99,44.23-15.82,18.66-26.79,38.85-29.56,54.35C-4.32,142.62-.62,191.31,19.17,243.71c19.86,52.57,54.28,104.28,99.56,149.56s96.99,79.7,149.56,99.56c32,12.09,62.6,18.18,90.66,18.18,17.89,0,34.74-2.48,50.24-7.45,15.5-2.78,35.69-13.74,54.35-29.57,21.62-18.33,37.33-39.98,44.23-60.98,9.48-28.83,2.93-55.63-18.93-77.49ZM479.34,403.66c-11.8,35.89-56.94,67.64-75.95,70.52-.83.12-1.65.32-2.45.58-70.12,23.13-177.47-19.09-261.04-102.66S14.11,181.18,37.24,111.06c.27-.8.46-1.62.58-2.45,2.87-19.01,34.63-64.14,70.52-75.94,5.4-1.78,10.58-2.67,15.55-2.67,11.47,0,21.85,4.75,31.43,14.33l32.36,32.36c8.78,8.78,13.61,20.51,13.61,33.04s-4.83,24.26-13.61,33.03l-8.13,8.13c-29.33,29.34-32.05,75.99-6.32,108.53,11.47,14.51,24.05,28.63,37.39,41.96,13.33,13.33,27.45,25.91,41.96,37.39,32.53,25.73,79.19,23.02,108.53-6.31l8.13-8.13c8.78-8.78,20.51-13.61,33.04-13.61s24.26,4.83,33.03,13.61l32.36,32.36c13.72,13.72,17.54,29.09,11.66,46.97Z"/>
  <path class="st0" d="M320.62,87.01c-8.09-1.66-16.01,3.54-17.68,11.64s3.54,16.01,11.64,17.68c20.02,4.12,38.24,13.95,52.7,28.4,14.24,14.24,24,32.17,28.22,51.86,1.5,7.02,7.71,11.83,14.62,11.83,1.04,0,2.1-.11,3.15-.34,8.08-1.73,13.23-9.69,11.49-17.77-5.43-25.34-18-48.42-36.32-66.75s-42.05-31.24-67.82-36.55Z"/>
  <path class="st0" d="M260.59,55.62c54.72-11.08,110.95,5.88,150.43,45.36,39.4,39.4,56.38,95.55,45.41,150.18-1.63,8.11,3.63,15.99,11.73,17.62.99.2,1.99.3,2.96.3,6.98,0,13.23-4.92,14.66-12.02,12.95-64.48-7.09-130.74-53.59-177.24S319.24,13.21,254.65,26.28c-8.1,1.64-13.34,9.54-11.7,17.64,1.64,8.1,9.53,13.34,17.64,11.7Z"/>
</svg>